<?xml version="1.0" encoding="utf-8"?>
<!-- Generator: Adobe Illustrator 25.3.0, SVG Export Plug-In . SVG Version: 6.00 Build 0)  -->
<svg version="1.1"
	 id="svg8" inkscape:export-filename="/Users/fouesneau/Documents/gaia_unlimited_logo_idea_v2.png" inkscape:export-xdpi="96" inkscape:export-ydpi="96" xmlns:cc="http://creativecommons.org/ns#" xmlns:dc="http://purl.org/dc/elements/1.1/" xmlns:inkscape="http://www.inkscape.org/namespaces/inkscape" xmlns:rdf="http://www.w3.org/1999/02/22-rdf-syntax-ns#" xmlns:sodipodi="http://sodipodi.sourceforge.net/DTD/sodipodi-0.dtd" xmlns:svg="http://www.w3.org/2000/svg"
	 xmlns="http://www.w3.org/2000/svg" xmlns:xlink="http://www.w3.org/1999/xlink" x="0px" y="0px" viewBox="0 0 203.4 81.3"
	 style="enable-background:new 0 0 203.4 81.3;" xml:space="preserve">
<style type="text/css">
	.st0{fill:#999999;}
	.st1{enable-background:new    ;}
	.st2{fill:#808080;}
	.st3{fill:url(#path102_1_);}
	.st4{fill:#960136;}
</style>
<sodipodi:namedview  bordercolor="#666666" borderopacity="1.0" fit-margin-bottom="0" fit-margin-left="0" fit-margin-right="0" fit-margin-top="0" id="base" inkscape:current-layer="layer1" inkscape:cx="141.70229" inkscape:cy="54.230509" inkscape:document-rotation="0" inkscape:document-units="mm" inkscape:pageopacity="0.0" inkscape:pageshadow="2" inkscape:window-height="1035" inkscape:window-maximized="0" inkscape:window-width="1920" inkscape:window-x="0" inkscape:window-y="23" inkscape:zoom="4.2546304" pagecolor="#ffffff" showgrid="false">
	</sodipodi:namedview>
<g id="layer1" transform="translate(-74.25471,-97.873527)" inkscape:groupmode="layer" inkscape:label="Layer 1">
	<path id="path1289" sodipodi:nodetypes="cssszssszzsssc" class="st0" d="M99.1,151.4c58.2-43.2,63.9-44.6,69.3-42.1
		s3,21.3-0.2,27.4c-3.3,6.1-7.9,22.2-28.4,6.5c-20.5-15.6-44.7-38-51.9-37.5c-7.2,0.4-4.5,5.8-3.5,8.5c1,2.8,10,21.7,16.2,26.3
		c6.3,4.6-0.1,13.6-10.1,6.1c-9.9-7.5-22.3-41.8-13.2-46.8c9.2-5,16.7,0.6,24.1,6.2c7.4,5.5,45.9,35.7,54.2,32.6
		c8.3-3.1,15.3-16.4,8.5-22c-6.8-5.6-52.6,36.6-58.4,40.2c-5.9,3.6-9.7-1.5-6.6-5.5"/>
	<g>
		<g class="st1">
			<path class="st2" d="M209.1,157.1c0,1.1,0,2.4,0,3.4h-2.5c0-0.3-0.1-1-0.1-1.4c-0.5,1.2-1.4,1.6-2.5,1.6c-1.9,0-3.1-1.5-3.1-4.4
				v-7.7h2.5v7.1c0,1.3,0.3,2.4,1.4,2.4c1.2,0,1.6-0.8,1.6-3.1v-6.3h2.5V157.1z"/>
			<path class="st2" d="M211.4,151.6c0-1,0-2.1,0-3h2.5c0.1,0.3,0.1,1.1,0.1,1.5c0.3-0.7,1.1-1.8,2.7-1.8c1.8,0,3.1,1.6,3.1,4.6v7.5
				h-2.5v-7.2c0-1.3-0.3-2.3-1.5-2.3c-1.1,0-1.7,0.8-1.7,2.9v6.6h-2.5V151.6z"/>
			<path class="st2" d="M221.9,160.5v-16.7h2.5v16.7H221.9z"/>
			<path class="st2" d="M226.8,143.8h2.5v2.9h-2.5V143.8z M226.8,148.7h2.5v11.8h-2.5V148.7z"/>
			<path class="st2" d="M231.6,151.7c0-1,0-2,0-3.1h2.4c0,0.3,0.1,1,0.1,1.4c0.5-0.9,1.2-1.7,2.6-1.7c1.3,0,2.1,0.9,2.4,1.8
				c0.5-1,1.3-1.8,2.8-1.8c1.6,0,2.9,1.3,2.9,4.3v7.8h-2.5v-7.4c0-1.1-0.3-2.1-1.3-2.1c-1.1,0-1.5,0.9-1.5,2.7v6.8H237v-7.2
				c0-1.2-0.2-2.2-1.3-2.2c-1,0-1.5,0.8-1.5,2.9v6.6h-2.5V151.7z"/>
			<path class="st2" d="M247.1,143.8h2.5v2.9h-2.5V143.8z M247.1,148.7h2.5v11.8h-2.5V148.7z"/>
			<path class="st2" d="M251,148.7h1.4v-3.2h2.5v3.2h1.8v2.5H255v5.8c0,0.9,0.2,1.2,1,1.2c0.1,0,0.4,0,0.6,0v2.3
				c-0.5,0.2-1.2,0.2-1.7,0.2c-1.8,0-2.4-1.2-2.4-3.3v-6.2H251V148.7z"/>
			<path class="st2" d="M260.4,155.3c0,1.5,0.6,2.9,1.8,2.9c1.1,0,1.4-0.5,1.6-1.3h2.6c-0.3,1.4-1.3,3.8-4.2,3.8c-3,0-4.3-2.9-4.3-6
				c0-3.7,1.5-6.4,4.4-6.4c3.2,0,4.2,2.9,4.2,5.9c0,0.4,0,0.7,0,1H260.4z M264,153.3c0-1.4-0.4-2.5-1.7-2.5c-1.2,0-1.7,1.1-1.8,2.5
				H264z"/>
			<path class="st2" d="M276.7,143.8v13.4c0,1.1,0,2.2,0,3.3h-2.5c-0.1-0.4-0.1-1-0.1-1.2c-0.4,0.9-1.2,1.5-2.6,1.5
				c-2.3,0-3.8-2.4-3.8-6.1c0-3.6,1.6-6.3,4.2-6.3c1.3,0,2,0.6,2.2,1.1v-5.7H276.7z M270.4,154.6c0,2.3,0.7,3.6,1.9,3.6
				c1.8,0,2-1.9,2-3.6c0-2-0.2-3.6-1.9-3.6C271,151,270.4,152.4,270.4,154.6z"/>
		</g>
	</g>
	
		<linearGradient id="path102_1_" gradientUnits="userSpaceOnUse" x1="-215.2629" y1="270.0195" x2="-240.6974" y2="285.8151" gradientTransform="matrix(2.8346 0 0 -2.8346 797.8651 943.1606)">
		<stop  offset="0" style="stop-color:#003333"/>
		<stop  offset="0.1604" style="stop-color:#332E32"/>
		<stop  offset="0.3859" style="stop-color:#752731"/>
		<stop  offset="0.5908" style="stop-color:#A82230"/>
		<stop  offset="0.7679" style="stop-color:#CE1E30"/>
		<stop  offset="0.9102" style="stop-color:#E51C2F"/>
		<stop  offset="1" style="stop-color:#ED1B2F"/>
	</linearGradient>
	<path id="path102" class="st3" d="M130.8,178.1l-3.7-0.4l-4.3-2.1l-4.3-2.1l-1-1.6l-1-1.6l-0.3-3l-0.3-3l1-2c0.8-1.6,1.5-2.7,3.3-5
		c2.1-2.6,2.6-3.1,4.5-4.5c1.2-0.9,4-2.7,6.4-4.1c2.3-1.4,4.3-2.7,4.3-2.8c0-0.1-1.1-2.9-2.5-6.2c-1.4-3.3-2.6-6.1-2.6-6.2
		c0-0.4,1.5-2.6,2.6-3.8c0.7-0.8,1.5-1.3,3.6-2.5c5.6-3,9-4.1,15.6-4.9c2.3-0.3,2.5-0.3,3.6,0c1.2,0.3,3.9,1.5,3.9,1.7
		c0,0.3,2.8,12,3,12.3c0.2,0.4,0.2,0.4,1.4,0.2c0.7-0.1,3.6-0.3,6.4-0.5c6.9-0.5,8-0.3,13.2,1.5c2.6,0.9,4.3,1.7,5.6,2.4l1.9,1.1
		l1.1,2.6l1.1,2.6l-0.4,2.3c-0.2,1.2-0.5,2.4-0.6,2.6c-0.1,0.2-1.6,2.3-3.3,4.7l-3.1,4.3l-3.4,2.7l-3.4,2.7l-8.2,3.9
		c-8,3.7-8.4,3.9-13.3,5.4l-5,1.6l-8.3,0.9c-4.6,0.5-8.5,1-8.9,1C134.7,178.5,132.8,178.3,130.8,178.1L130.8,178.1z"/>
	<g>
		<g class="st1">
			<path class="st4" d="M215.9,136c0,5.9-2,9.2-7.4,9.2c-5.7,0-6.6-4.1-6.9-5.9h4.1c0.3,1.1,1,2,3,2c2.6,0,3.2-2.2,3.2-5v-0.7
				c-0.7,1.3-1.8,2.3-4.2,2.3c-3.7,0-6.2-3.8-6.2-8.2c0-5.1,2.8-8.9,6.5-8.9c2.7,0,3.6,1.4,3.9,2.3c0-0.6,0-1.5,0.1-1.9h3.9
				c0,1.6,0,3.2,0,4.8V136z M205.7,129.6c0,2.4,1.1,4.4,3.2,4.4c2,0,3.2-1.6,3.2-4.6c0-2.7-1.1-4.5-3.1-4.5
				C206.8,124.9,205.7,127,205.7,129.6z"/>
			<path class="st4" d="M231.9,133.2c0,2.1,0.1,4.3,0.1,4.6h-3.8c-0.1-0.4-0.1-1.4-0.1-1.9c-0.7,1.4-2.1,2.3-4.5,2.3
				c-3.5,0-4.9-2.7-4.9-5.4c0-4.3,2.9-5.5,6.7-5.5c1,0,2.2,0,2.7,0v-0.5c0-1.3-0.4-2.4-2.3-2.4c-1.7,0-2.1,0.8-2.3,1.8h-4
				c0.1-2,1.2-5.3,6.2-5.3c5.5,0,6.3,3.4,6.3,6.1V133.2z M228,130.7c-0.3,0-1.2,0-2.6,0c-2,0-2.8,0.7-2.8,2c0,1.1,0.7,1.9,2.1,1.9
				c2.2,0,3.3-1.3,3.3-3.7V130.7z"/>
			<path class="st4" d="M235.3,114.1h4v4.2h-4V114.1z M235.3,121.3h4v16.5h-4V121.3z"/>
			<path class="st4" d="M255.3,133.2c0,2.1,0.1,4.3,0.1,4.6h-3.8c-0.1-0.4-0.1-1.4-0.1-1.9c-0.7,1.4-2.1,2.3-4.5,2.3
				c-3.5,0-4.9-2.7-4.9-5.4c0-4.3,2.9-5.5,6.7-5.5c1,0,2.2,0,2.7,0v-0.5c0-1.3-0.4-2.4-2.3-2.4c-1.7,0-2.1,0.8-2.3,1.8h-4
				c0.1-2,1.2-5.3,6.2-5.3c5.5,0,6.3,3.4,6.3,6.1V133.2z M251.4,130.7c-0.3,0-1.2,0-2.6,0c-2,0-2.9,0.7-2.9,2c0,1.1,0.7,1.9,2.1,1.9
				c2.2,0,3.3-1.3,3.3-3.7V130.7z"/>
		</g>
	</g>
</g>
</svg>
